<mxfile host="app.diagrams.net" modified="2023-12-18T09:58:16.955Z" agent="Mozilla/5.0 (Windows NT 10.0; Win64; x64) AppleWebKit/537.36 (KHTML, like Gecko) Chrome/120.0.0.0 Safari/537.36" version="22.1.11" etag="tybmBbb2qr8DdHHHr2c4" type="github">
  <diagram name="Page-1" id="PWqwW2PoI_UkWhIvHHGO">
    <mxGraphModel>
      <root>
        <mxCell id="0" />
        <mxCell id="1" parent="0" />
      </root>
    </mxGraphModel>
  </diagram>
</mxfile>
